# xmcd CD database file
#
# Track frame offsets:
#	150
#	15595
#	37922
#	53940
#	67702
#	75995
#	90085
#	107490
#	124082
#	141012
#	160762
#	178115
#	195945
#	216052
#
# Disc length: 3066 seconds
#
# Revision: 0
# Processed by: cddbd v1.5.1PL0 Copyright (c) Steve Scherf et al.
# Submitted via: CDex 1.60beta1
#
DISCID=9d0bf80e
DTITLE=Antonio Zepeda - Espejo De La Noche
DYEAR=0
DGENRE=New Age
TTITLE0=Viento De Espinas
TTITLE1=El Nacimiento De Huitzilopochtli
TTITLE2=El Reposo Del Jaguar
TTITLE3=La Cueva De Los Hechizos
TTITLE4=La Grutadel Sonido
TTITLE5=Ondulantes Serpientes De Agua
TTITLE6=¿He De Dejar Las Bellas Flores?
TTITLE7=El Polvo De La Nada
TTITLE8=Mariposa De Obsidiana
TTITLE9=Coatlicue
TTITLE10=El Espejo Humeante
TTITLE11=El Escudo Humeante
TTITLE12=El Sueño
TTITLE13=Desde Donde Se Posan Las Aguilas
EXTD=YEAR: 0
EXTT0=
EXTT1=
EXTT2=
EXTT3=
EXTT4=
EXTT5=
EXTT6=
EXTT7=
EXTT8=
EXTT9=
EXTT10=
EXTT11=
EXTT12=
EXTT13=
PLAYORDER=
